<?xml version="1.0" encoding="UTF-8" standalone="no"?><!DOCTYPE svg PUBLIC "-//W3C//DTD SVG 1.1//EN" "http://www.w3.org/Graphics/SVG/1.1/DTD/svg11.dtd"><!-- Generated by graphviz version 2.40.1 (20161225.0304)
 --><!-- Title: %0 Pages: 1 --><svg xmlns="http://www.w3.org/2000/svg" xmlns:xlink="http://www.w3.org/1999/xlink" width="1112pt" height="750pt" viewBox="0.00 0.00 1112.00 749.80">
<g id="graph0" class="graph" transform="scale(1 1) rotate(0) translate(4 745.8)">
<title>%0</title>
<polygon fill="#ffffff" stroke="transparent" points="-4,4 -4,-745.8 1108,-745.8 1108,4 -4,4"/>
<g id="clust1" class="cluster">
<title>cluster_input</title>
<polygon fill="none" stroke="#000000" points="177,-546 177,-733.8 646,-733.8 646,-546 177,-546"/>
<text text-anchor="middle" x="411.5" y="-717.2" font-family="Times,serif" font-size="14.00" fill="#000000">Input</text>
</g>
<g id="clust2" class="cluster">
<title>cluster_processing</title>
<polygon fill="none" stroke="#000000" points="8,-81 8,-511.2 606,-511.2 606,-81 8,-81"/>
<text text-anchor="middle" x="307" y="-494.6" font-family="Times,serif" font-size="14.00" fill="#000000">Processing</text>
</g>
<g id="clust3" class="cluster">
<title>cluster_output</title>
<polygon fill="none" stroke="#000000" points="789,-8 789,-230.8 937,-230.8 937,-8 789,-8"/>
<text text-anchor="middle" x="863" y="-214.2" font-family="Times,serif" font-size="14.00" fill="#000000">Output</text>
</g>
<g id="clust4" class="cluster">
<title>cluster_auxiliary</title>
<polygon fill="none" stroke="#000000" points="614,-338.6 614,-415.4 1096,-415.4 1096,-338.6 614,-338.6"/>
<text text-anchor="middle" x="855" y="-398.8" font-family="Times,serif" font-size="14.00" fill="#000000">Auxiliary</text>
</g>
<!-- A -->
<g id="node1" class="node">
<title>A</title>
<ellipse fill="none" stroke="#000000" cx="509" cy="-683" rx="129.1182" ry="18"/>
<text text-anchor="middle" x="509" y="-678.8" font-family="Times,serif" font-size="14.00" fill="#000000">CSVs with pharmacy products</text>
</g>
<!-- C -->
<g id="node3" class="node">
<title>C</title>
<ellipse fill="none" stroke="#000000" cx="391" cy="-572" rx="67.7352" ry="18"/>
<text text-anchor="middle" x="391" y="-567.8" font-family="Times,serif" font-size="14.00" fill="#000000">Data Ingestion</text>
</g>
<!-- A&#45;&gt;C -->
<g id="edge1" class="edge">
<title>A-&gt;C</title>
<path fill="none" stroke="#000000" d="M490.0413,-665.1659C470.2271,-646.5271 439.0049,-617.1571 416.9197,-596.3821"/>
<polygon fill="#000000" stroke="#000000" points="419.2046,-593.7263 409.5226,-589.4238 414.4084,-598.8249 419.2046,-593.7263"/>
</g>
<!-- B -->
<g id="node2" class="node">
<title>B</title>
<ellipse fill="none" stroke="#000000" cx="273" cy="-683" rx="88.0422" ry="18"/>
<text text-anchor="middle" x="273" y="-678.8" font-family="Times,serif" font-size="14.00" fill="#000000">Product match table</text>
</g>
<!-- B&#45;&gt;C -->
<g id="edge2" class="edge">
<title>B-&gt;C</title>
<path fill="none" stroke="#000000" d="M291.9587,-665.1659C311.7729,-646.5271 342.9951,-617.1571 365.0803,-596.3821"/>
<polygon fill="#000000" stroke="#000000" points="367.5916,-598.8249 372.4774,-589.4238 362.7954,-593.7263 367.5916,-598.8249"/>
</g>
<!-- D -->
<g id="node4" class="node">
<title>D</title>
<ellipse fill="none" stroke="#000000" cx="391" cy="-460.4" rx="27" ry="18"/>
<text text-anchor="middle" x="391" y="-456.2" font-family="Times,serif" font-size="14.00" fill="#000000">D</text>
</g>
<!-- C&#45;&gt;D -->
<g id="edge3" class="edge">
<title>C-&gt;D</title>
<path fill="none" stroke="#000000" d="M391,-553.5715C391,-535.939 391,-509.0924 391,-488.7391"/>
<polygon fill="#000000" stroke="#000000" points="394.5001,-488.4855 391,-478.4856 387.5001,-488.4856 394.5001,-488.4855"/>
<text text-anchor="middle" x="445.2269" y="-523.4" font-family="Times,serif" font-size="14.00" fill="#000000">Data Preprocessing</text>
</g>
<!-- E -->
<g id="node5" class="node">
<title>E</title>
<ellipse fill="none" stroke="#000000" cx="391" cy="-291.6" rx="27" ry="18"/>
<text text-anchor="middle" x="391" y="-287.4" font-family="Times,serif" font-size="14.00" fill="#000000">E</text>
</g>
<!-- D&#45;&gt;E -->
<g id="edge4" class="edge">
<title>D-&gt;E</title>
<path fill="none" stroke="#000000" d="M391,-442.3354C391,-412.9691 391,-354.6586 391,-319.7978"/>
<polygon fill="#000000" stroke="#000000" points="394.5001,-319.7898 391,-309.7898 387.5001,-319.7898 394.5001,-319.7898"/>
<text text-anchor="middle" x="487.0274" y="-360.4" font-family="Times,serif" font-size="14.00" fill="#000000">Manufacturer Mapping Algorithm</text>
</g>
<!-- F -->
<g id="node6" class="node">
<title>F</title>
<ellipse fill="none" stroke="#000000" cx="43" cy="-107" rx="27" ry="18"/>
<text text-anchor="middle" x="43" y="-102.8" font-family="Times,serif" font-size="14.00" fill="#000000">F</text>
</g>
<!-- E&#45;&gt;F -->
<g id="edge5" class="edge">
<title>E-&gt;F</title>
<path fill="none" stroke="#000000" d="M364.0421,-289.9637C295.8205,-285.2815 118.7737,-269.588 76.913,-230.8 50.5329,-206.3563 43.9357,-163.5324 42.6626,-135.2162"/>
<polygon fill="#000000" stroke="#000000" points="46.1596,-135.05 42.4053,-125.1426 39.1619,-135.2288 46.1596,-135.05"/>
<text text-anchor="middle" x="152.0435" y="-175.8" font-family="Times,serif" font-size="14.00" fill="#000000">Relation Type Assignment</text>
</g>
<!-- G -->
<g id="node7" class="node">
<title>G</title>
<ellipse fill="none" stroke="#000000" cx="474" cy="-107" rx="27" ry="18"/>
<text text-anchor="middle" x="474" y="-102.8" font-family="Times,serif" font-size="14.00" fill="#000000">G</text>
</g>
<!-- E&#45;&gt;G -->
<g id="edge6" class="edge">
<title>E-&gt;G</title>
<path fill="none" stroke="#000000" d="M390.4686,-273.1972C390.4907,-246.9029 393.4873,-197.8078 413.1682,-162 421.0804,-147.6044 434.2167,-135.0131 446.2612,-125.5238"/>
<polygon fill="#000000" stroke="#000000" points="448.4429,-128.2627 454.3476,-119.4658 444.2459,-122.6604 448.4429,-128.2627"/>
<text text-anchor="middle" x="523.4159" y="-175.8" font-family="Times,serif" font-size="14.00" fill="#000000">Product Title to Manufacturer Function</text>
</g>
<!-- H -->
<g id="node8" class="node">
<title>H</title>
<ellipse fill="none" stroke="#000000" cx="220" cy="-107" rx="27" ry="18"/>
<text text-anchor="middle" x="220" y="-102.8" font-family="Times,serif" font-size="14.00" fill="#000000">H</text>
</g>
<!-- E&#45;&gt;H -->
<g id="edge7" class="edge">
<title>E-&gt;H</title>
<path fill="none" stroke="#000000" d="M365.496,-285.0021C337.9906,-276.6651 294.5889,-259.7864 268.0722,-230.8 243.3422,-203.7668 230.7911,-162.5936 224.8278,-135.2506"/>
<polygon fill="#000000" stroke="#000000" points="228.1998,-134.2668 222.7882,-125.1583 221.3385,-135.6535 228.1998,-134.2668"/>
<text text-anchor="middle" x="328.4639" y="-175.8" font-family="Times,serif" font-size="14.00" fill="#000000">Validation Algorithm</text>
</g>
<!-- I -->
<g id="node9" class="node">
<title>I</title>
<ellipse fill="none" stroke="#000000" cx="824" cy="-180" rx="27" ry="18"/>
<text text-anchor="middle" x="824" y="-175.8" font-family="Times,serif" font-size="14.00" fill="#000000">I</text>
</g>
<!-- E&#45;&gt;I -->
<g id="edge8" class="edge">
<title>E-&gt;I</title>
<path fill="none" stroke="#000000" d="M416.4696,-285.0356C490.1684,-266.0407 703.7704,-210.9876 788.635,-189.1149"/>
<polygon fill="#000000" stroke="#000000" points="789.7525,-192.4413 798.5625,-186.5562 788.0054,-185.6628 789.7525,-192.4413"/>
<text text-anchor="middle" x="685.3409" y="-243" font-family="Times,serif" font-size="14.00" fill="#000000">Related Manufacturers Database</text>
</g>
<!-- J -->
<g id="node10" class="node">
<title>J</title>
<ellipse fill="none" stroke="#000000" cx="824" cy="-34" rx="27" ry="18"/>
<text text-anchor="middle" x="824" y="-29.8" font-family="Times,serif" font-size="14.00" fill="#000000">J</text>
</g>
<!-- I&#45;&gt;J -->
<g id="edge9" class="edge">
<title>I-&gt;J</title>
<path fill="none" stroke="#000000" d="M824,-161.8042C824,-136.8868 824,-91.8938 824,-62.4877"/>
<polygon fill="#000000" stroke="#000000" points="827.5001,-62.4251 824,-52.4251 820.5001,-62.4251 827.5001,-62.4251"/>
<text text-anchor="middle" x="880.9709" y="-102.8" font-family="Times,serif" font-size="14.00" fill="#000000">SQLite/CSV Output</text>
</g>
<!-- K -->
<g id="node11" class="node">
<title>K</title>
<ellipse fill="none" stroke="#000000" cx="727" cy="-364.6" rx="104.7499" ry="18"/>
<text text-anchor="middle" x="727" y="-360.4" font-family="Times,serif" font-size="14.00" fill="#000000">Efficiency Optimization</text>
</g>
<!-- K&#45;&gt;E -->
<g id="edge10" class="edge">
<title>K-&gt;E</title>
<path fill="none" stroke="#000000" stroke-dasharray="1,5" d="M662.9592,-350.2592C645.7673,-346.4393 627.1811,-342.3367 610,-338.6 589.1314,-334.0613 583.8839,-333.0679 563,-328.6 516.0367,-318.5526 461.878,-306.8896 427.0789,-299.3858"/>
<polygon fill="#000000" stroke="#000000" points="427.4433,-295.884 416.9301,-297.197 425.9675,-302.7267 427.4433,-295.884"/>
</g>
<!-- K&#45;&gt;G -->
<g id="edge11" class="edge">
<title>K-&gt;G</title>
<path fill="none" stroke="#000000" stroke-dasharray="1,5" d="M714.2633,-346.4509C699.9572,-325.4058 676.8082,-289.2836 662,-255.6 644.5249,-215.8502 664.0768,-193.3179 634,-162 601.501,-128.1599 547.2666,-115.1366 511.0732,-110.1273"/>
<polygon fill="#000000" stroke="#000000" points="511.2759,-106.6256 500.9207,-108.8657 510.4127,-113.5722 511.2759,-106.6256"/>
</g>
<!-- L -->
<g id="node12" class="node">
<title>L</title>
<ellipse fill="none" stroke="#000000" cx="969" cy="-364.6" rx="119.219" ry="18"/>
<text text-anchor="middle" x="969" y="-360.4" font-family="Times,serif" font-size="14.00" fill="#000000">Incremental Update Process</text>
</g>
<!-- L&#45;&gt;E -->
<g id="edge12" class="edge">
<title>L-&gt;E</title>
<path fill="none" stroke="#000000" stroke-dasharray="1,5" d="M901.7913,-349.6819C882.2549,-345.6897 860.8362,-341.6433 841,-338.6 688.6141,-315.221 505.3837,-300.064 428.175,-294.2638"/>
<polygon fill="#000000" stroke="#000000" points="428.2303,-290.7584 417.9984,-293.5076 427.7115,-297.7391 428.2303,-290.7584"/>
</g>
<!-- L&#45;&gt;I -->
<g id="edge13" class="edge">
<title>L-&gt;I</title>
<path fill="none" stroke="#000000" stroke-dasharray="1,5" d="M954.8328,-346.5637C928.5313,-313.0791 872.1618,-241.315 842.7424,-203.861"/>
<polygon fill="#000000" stroke="#000000" points="845.4841,-201.6853 836.5545,-195.9832 839.9792,-206.0093 845.4841,-201.6853"/>
</g>
</g>
</svg>